<svg id="svg" xmlns="http://www.w3.org/2000/svg" xmlns:xlink="http://www.w3.org/1999/xlink" width="400" height="400" viewBox="0, 0, 400,400"><g id="svgg"><path id="path0" d="M177.344 34.209 C 110.220 41.471,50.345 94.627,34.598 160.938 C 11.209 259.431,80.695 347.876,181.445 347.848 C 252.828 347.829,314.655 305.459,348.256 233.534 C 367.701 191.913,374.579 135.505,362.461 117.047 C 350.916 99.460,328.082 101.793,320.435 121.340 L 319.385 124.023 319.104 138.672 C 318.751 157.115,317.865 164.729,314.580 177.539 C 304.928 215.172,280.153 246.887,250.062 260.129 C 242.251 263.566,241.745 262.226,247.346 252.930 C 265.230 223.244,275.078 194.949,278.307 163.976 C 279.091 156.455,279.097 143.805,278.318 139.211 C 275.013 119.705,251.964 112.136,238.871 126.259 C 233.763 131.768,232.579 135.357,231.811 147.656 C 230.122 174.717,224.675 193.235,212.847 212.127 C 205.169 224.391,192.528 238.337,183.938 244.022 L 182.329 245.087 181.541 244.126 C 180.785 243.204,180.763 242.807,181.003 234.570 C 182.086 197.316,181.905 193.312,178.859 187.135 C 171.543 172.298,152.726 169.054,141.209 180.644 C 134.847 187.046,134.388 188.999,133.984 211.431 C 133.419 242.747,133.043 245.301,128.239 250.437 C 121.267 257.891,107.289 255.426,98.798 245.244 C 81.674 224.711,78.112 189.627,90.022 158.811 C 106.113 117.179,144.605 87.983,187.638 84.770 C 208.720 83.196,220.149 64.886,211.279 46.898 C 205.861 35.908,195.936 32.197,177.344 34.209 " stroke="none" fill="#000000" fill-rule="evenodd"></path></g></svg>